<svg xmlns="http://www.w3.org/2000/svg" viewBox="0 0 60 60" role="img" aria-label="CISAC Logo" width="75" height="75">
  <rect fill="#e20026" x="0" y="0" rx="2.5" ry="2.5" width="60" height="60"></rect>
  <path fill="#fff" style="transform:translateX(1px)" d="M21.47 0c-1.66 3.45-3.02 7.72-3.08 12.51l-0.19 3.53c0 0-3.17-5.73 0.76-16.03h-2.86c-3.88 8.48-0.54 16.6-0.54 16.6s3.3 6.99 6.28 9.94l0.57 1.21c1.71 2.29 5.51 4.25 5.51 4.25 4.96 2.48 13.36 3.7 16.63 4.09l-12.94-1.45c14.65 5.45 27.04-2.68 27.04-2.68 0.47-0.33 0.92-0.67 1.36-1v-9.93c-9.42 11.92-22.35 9-22.35 9 -9.84-1.93-13.92-6.35-13.92-6.35 -1.09-0.61-3.32-4.67-3.32-4.67 -1.46-3.26 0.18-10.93 0.18-10.93C21.17 4.95 22.06 2 23.14 0"></path>
  <rect fill="#fff" x="16.2" y="41.7" width="3.75" height="15.54"></rect>
  <path fill="#fff" d="M25.34 44.5c0.5-0.51 2.34-0.78 4.05 0.89l1.61-2.61c0 0-2.86-2.42-6.7-1.25 0 0-3.72 1-3.26 5.82 0 0 0.1 2.55 4.71 3.69 0 0 2.89 0.44 1.39 2.6 0 0-1.61 1.85-5.04-0.87l-1.43 2.86c0 0 3.79 3.23 8.6 1.27 0 0 4.53-2.71 1.51-7.38 0 0-0.64-1.48-5.15-2.88C25.63 46.64 24.19 45.68 25.34 44.5"></path>
  <path fill="#fff" d="M41.24 41.7l-4.23 0.01 -5.89 15.83 3.91-0.03 1.07-2.98 5.68 0.06 0.78 2.85 4.23 0L41.24 41.7zM37.44 51.53l1.69-4.56 1.52 4.56H37.44z"></path>
  <path fill="#fff" d="M57.45 46.79v-4.46c0 0-3.96-2.39-8.57 0.55 0 0-3.32 2.6-3.21 6.19 0 0-0.54 4.89 4.18 7.61 0 0 3.85 2.06 7.5-0.22v-3.94c0 0-6.96 2.98-7.18-3.11C50.17 49.41 50.49 43.86 57.45 46.79"></path>
  <path fill="#fff" d="M14.38 46.76v-4.45c0 0-3.96-2.39-8.57 0.54 0 0-3.32 2.61-3.21 6.19 0 0-0.53 4.89 4.18 7.6 0 0 3.86 2.06 7.5-0.22v-3.94c0 0-6.96 2.98-7.18-3.11C7.1 49.38 7.42 43.82 14.38 46.76"></path>
</svg>