<svg xmlns="http://www.w3.org/2000/svg" xmlns:xlink="http://www.w3.org/1999/xlink" width="184.997" height="34.887" viewBox="0 0 184.997 34.887"><defs><clipPath id="a"><rect width="184.997" height="34.887" transform="translate(0 0)" fill="none"/></clipPath></defs><g transform="translate(0 0)" clip-path="url(#a)"><path d="M24.85,26.878c0,3.054-2.481,7.285-7.134,7.285H7.226A6.507,6.507,0,0,1,2.84,32.1,7.334,7.334,0,0,1,.611,26.905l-.006-2.9H0v2.9a7.927,7.927,0,0,0,2.4,5.62A7.154,7.154,0,0,0,7.226,34.77h10.49A7.3,7.3,0,0,0,23,32.617a8.572,8.572,0,0,0,2.462-5.739V6.475H24.85Z" fill="#0f5392"/><path d="M7.928,33h9.724a5.971,5.971,0,0,0,4.239-1.811A6.115,6.115,0,0,0,23.748,27V6.476h-.609V27a5.659,5.659,0,0,1-5.487,5.4H7.928a5.259,5.259,0,0,1-3.859-1.5,6.183,6.183,0,0,1-1.725-4.078V24.006H1.733v2.808a6.708,6.708,0,0,0,1.908,4.5A5.827,5.827,0,0,0,7.928,33" fill="#0f5392"/><path d="M7.741,31.3H17.5a4.72,4.72,0,0,0,3.253-1.4,4.287,4.287,0,0,0,1.288-3.086V6.476h-.609V26.814A3.958,3.958,0,0,1,17.5,30.686H7.741a3.66,3.66,0,0,1-2.523-1.131,3.8,3.8,0,0,1-1.164-2.619v-2.93H3.443v2.93a4.4,4.4,0,0,0,1.344,3.05A4.3,4.3,0,0,0,7.741,31.3" fill="#0f5392"/><path d="M7.833,29.621h9.608a2.785,2.785,0,0,0,2.013-.813,2.692,2.692,0,0,0,.789-1.93V6.476h-.611v20.4a2.113,2.113,0,0,1-2.191,2.13H7.833a1.978,1.978,0,0,1-1.407-.549,2.3,2.3,0,0,1-.6-1.678V24.006h-.61v2.775a2.9,2.9,0,0,0,.782,2.1,2.567,2.567,0,0,0,1.838.735" fill="#0f5392"/><path d="M7.833,27.817h9.73a1.066,1.066,0,0,0,.75-.3.831.831,0,0,0,.254-.612V6.475h-.611v20.43c0,.233-.265.307-.393.307H7.833a.345.345,0,0,1-.233-.074.316.316,0,0,1-.072-.233V24H6.917v2.9a.854.854,0,0,0,.916.912" fill="#0f5392"/><path d="M52.854,8.871a8.017,8.017,0,0,0-5.289-2.4h-3.84a8.036,8.036,0,0,0-6.434,3.638c-.979,1.841-9.577,20.748-10.552,22.9a1.207,1.207,0,0,0,.04,1.188,1.261,1.261,0,0,0,1,.569H46.008v-.607H27.775a.652.652,0,0,1-.486-.292.608.608,0,0,1,0-.6c.393-.861,9.552-21.009,10.539-22.87a7.371,7.371,0,0,1,5.9-3.313h3.84a7.5,7.5,0,0,1,7.012,7.533V34.77h.613V14.618a7.932,7.932,0,0,0-2.336-5.747" fill="#0f5392"/><path d="M47.2,8.182h-3.08a6.487,6.487,0,0,0-5.386,2.838c-.924,1.59-9.421,20.189-9.486,20.34a1.192,1.192,0,0,0,1.05,1.652c.631.008,15.7,0,15.7,0V32.4s-15.066.007-15.7,0a.583.583,0,0,1-.49-.806c.063-.147,8.529-18.683,9.445-20.273A5.953,5.953,0,0,1,44.119,8.8H47.2a5.96,5.96,0,0,1,4.037,1.751,5.527,5.527,0,0,1,1.635,3.979V34.77h.607V14.526a6.114,6.114,0,0,0-1.813-4.411A6.492,6.492,0,0,0,47.2,8.182" fill="#0f5392"/><path d="M47.23,9.951c-.01,0-1.634-.029-3.233-.029a4.6,4.6,0,0,0-4.169,2.688C39.1,13.969,34.853,23.1,32.809,27.5l-.935,2a1.24,1.24,0,0,0,.032,1.216,1.259,1.259,0,0,0,1.023.58H46.008v-.612H32.929a.6.6,0,0,1-.5-.92l.932-2.006c1.881-4.046,6.286-13.523,7-14.86A4.025,4.025,0,0,1,44,10.529c1.595,0,3.21.031,3.227.031a3.881,3.881,0,0,1,2.71,1.151,4.058,4.058,0,0,1,1.17,2.906V34.77h.607V14.617a4.661,4.661,0,0,0-1.347-3.336,4.468,4.468,0,0,0-3.134-1.33" fill="#0f5392"/><path d="M47.168,11.659H44.179a2.729,2.729,0,0,0-2.62,1.384c-.46.895-7.056,14.585-7.121,14.72a1.208,1.208,0,0,0,.034,1.207,1.328,1.328,0,0,0,1.079.618H46.008v-.611H35.551a.723.723,0,0,1-.562-.33.6.6,0,0,1,0-.616c.063-.136,6.656-13.819,7.114-14.708a2.129,2.129,0,0,1,2.076-1.059h2.989a2.253,2.253,0,0,1,1.565.687,2.137,2.137,0,0,1,.66,1.512V34.77H50V14.463a2.761,2.761,0,0,0-.836-1.945,2.888,2.888,0,0,0-2-.859" fill="#0f5392"/><path d="M47.079,13.367H43.97a1.216,1.216,0,0,0-1.107.838c-.138.33-5.493,11.129-5.844,11.8a1.2,1.2,0,0,0,0,1.208,1.31,1.31,0,0,0,1.061.628h7.928v-.615H38.08a.708.708,0,0,1-.538-.328.585.585,0,0,1,.015-.607c.044-.082,5.638-11.306,5.871-11.837.16-.393.334-.471.542-.471h3.109a.587.587,0,0,1,.445.15.715.715,0,0,1,.164.522V34.77H48.3V14.65a1.292,1.292,0,0,0-.344-.955,1.2,1.2,0,0,0-.876-.328" fill="#0f5392"/><path d="M66.846,23.5l12.686.845a1.011,1.011,0,0,1,1.056.976v.912a.984.984,0,0,1-.974.981H66.852a.728.728,0,0,1-.521-.227,1.146,1.146,0,0,1-.319-.754v-.912H65.4v.912a1.749,1.749,0,0,0,.5,1.183,1.333,1.333,0,0,0,.953.4H79.614A1.577,1.577,0,0,0,81.2,26.25v-.931a1.617,1.617,0,0,0-1.626-1.588l-12.684-.848c-3.226-.223-6.409-3.368-6.756-5.777a13.559,13.559,0,0,1,.049-4.39,7.854,7.854,0,0,1,7.568-5.632H78.664a7.733,7.733,0,0,1,6.317,3.264A7.513,7.513,0,0,1,86.5,14.133V15.44h.607V14.133a8.048,8.048,0,0,0-1.643-4.152,8.293,8.293,0,0,0-6.8-3.506H67.749a8.49,8.49,0,0,0-8.163,6.11,14.3,14.3,0,0,0-.057,4.607c.379,2.647,3.727,6.052,7.317,6.306" fill="#0f5392"/><path d="M85.33,15.474V14.1a7.336,7.336,0,0,0-2.1-3.987,6.481,6.481,0,0,0-4.747-1.933H67.689a7.138,7.138,0,0,0-6.546,5.46,7.15,7.15,0,0,0,.034,2.9l.008.04c.322,1.16,1.3,4.664,6.313,5.228,3.922.44,7.409.6,9.963.717l2.13.107a2.564,2.564,0,0,1,2.725,2.384c.014.343.01.607.008.945l-.008.66a2.609,2.609,0,0,1-2.675,2.353H66.924a2.5,2.5,0,0,1-1.768-.759,3.022,3.022,0,0,1-.883-1.987v-.882h-.611v.882a3.576,3.576,0,0,0,1.065,2.42,3.059,3.059,0,0,0,2.2.937H79.641a3.219,3.219,0,0,0,2.34-.922,3.166,3.166,0,0,0,.944-2.042l.01-.653c0-.334,0-.618-.01-.971a3.185,3.185,0,0,0-3.3-2.97l-2.139-.112c-2.543-.115-6.024-.277-9.917-.712-4.611-.518-5.476-3.615-5.8-4.783l-.01-.044A6.524,6.524,0,0,1,61.75,13.7,6.569,6.569,0,0,1,67.689,8.8H78.484a5.875,5.875,0,0,1,4.313,1.75,6.93,6.93,0,0,1,1.92,3.556v1.372Z" fill="#0f5392"/><path d="M83.617,15.444c0-.034.017-.2,0-.922a5.1,5.1,0,0,0-4.981-4.571H67.719a5.122,5.122,0,0,0-4.774,3.7,7.414,7.414,0,0,0-.053,2.124c.019.2.034.414.046.657.068,1.137,2.233,3.643,4.387,3.643,1.939,0,9.656.582,12.381.823,2.332.2,4.214,2.124,4.281,3.637a5.517,5.517,0,0,1,.086,1.684,4.462,4.462,0,0,1-4.357,4.464H66.682a3.959,3.959,0,0,1-2.769-1.258,4.3,4.3,0,0,1-1.331-2.493V25.319h-.608v1.616a4.825,4.825,0,0,0,1.508,2.926,4.567,4.567,0,0,0,3.2,1.438H79.737a5.056,5.056,0,0,0,4.947-5.049,5.216,5.216,0,0,0-.084-1.738c-.084-1.8-2.166-3.989-4.836-4.22-2.274-.2-10.332-.823-12.439-.823-1.943,0-3.729-2.34-3.777-3.069-.011-.254-.03-.467-.046-.674a6.9,6.9,0,0,1,.043-1.975,4.469,4.469,0,0,1,4.174-3.191H78.636a4.535,4.535,0,0,1,4.376,3.972c.015.7,0,.843,0,.851Z" fill="#0f5392"/><path d="M81.927,15.44v-.7a3.638,3.638,0,0,0-1.057-2.163,3.022,3.022,0,0,0-2.17-.916H67.718a3.207,3.207,0,0,0-3.094,2.271c0,.172-.015.4-.038.634a7.5,7.5,0,0,0-.035,1.332,3.213,3.213,0,0,0,2.932,2.456c1.469.106,9.947.709,12.116.808,3.874.179,5.966,3.235,6.046,4.9a8,8,0,0,1,.113,2.642c-.121,1.481-1.491,5.7-6.056,5.7H66.651a6.171,6.171,0,0,1-5.779-5.417V25.319h-.607v1.695l0,.013A6.794,6.794,0,0,0,66.651,33H79.7c5.027,0,6.531-4.63,6.662-6.253a7.729,7.729,0,0,0-.108-2.725c-.094-1.859-2.392-5.279-6.631-5.474-2.16-.1-10.629-.7-12.1-.805a2.66,2.66,0,0,1-2.369-1.9,7.2,7.2,0,0,1,.037-1.229c.021-.248.042-.481.042-.68a1.719,1.719,0,0,1,.526-.815,2.779,2.779,0,0,1,1.957-.851H78.7a2.394,2.394,0,0,1,1.738.741,3.047,3.047,0,0,1,.88,1.733v.7Z" fill="#0f5392"/><path d="M60.872,26.995v0Z" fill="#0f5392"/><path d="M66.88,15.474v0Z" fill="#0f5392"/><path d="M80.717,16.885l-3.225-.216c-3.734-.242-9.374-.616-9.822-.677a1.019,1.019,0,0,1-.79-.525v0c0-.119.007-.3.015-.47s.021-.372.021-.5a.422.422,0,0,1,.128-.3,1.015,1.015,0,0,1,.737-.218H78.515a.905.905,0,0,1,.652.275,1.233,1.233,0,0,1,.355.727v.46h.607v-.46a1.8,1.8,0,0,0-.531-1.158,1.5,1.5,0,0,0-1.083-.455H67.781c-1.168,0-1.481.71-1.481,1.126,0,.117-.008.3-.016.479s-.013.373-.013.5c0,.438.563,1.014,1.315,1.123.433.063,4.913.357,9.867.683l3.22.214c1.58.112,6.117,1.88,6.774,6.586a14.985,14.985,0,0,1-.094,3.877,8.009,8.009,0,0,1-7.663,6.206h-12.8a7.936,7.936,0,0,1-7.806-7.281V25.319h-.611v1.586a8.556,8.556,0,0,0,8.417,7.865H79.7a8.587,8.587,0,0,0,8.241-6.659,15.148,15.148,0,0,0,.107-4.1c-.706-5.092-5.623-7-7.333-7.123" fill="#0f5392"/><path d="M110.949,25.168c-.168-.29-.194-.467-.16-.534.038-.092.271-.145.393-.174l.886-.216c2.542-.874,5.477-3.254,5.477-7.1,0-1.815-.049-3.229-.049-3.241-.218-3.962-4.169-7.432-8.459-7.432H92.39a2.1,2.1,0,0,0-2.015,2.01V34.77h.611V8.485a1.359,1.359,0,0,1,.425-.956,1.439,1.439,0,0,1,.979-.445h16.647c3.985,0,7.653,3.2,7.852,6.846,0,.01.045,1.415.045,3.218,0,3.52-2.714,5.707-5.04,6.51l-.855.209a1.06,1.06,0,0,0-.808.522,1.212,1.212,0,0,0,.184,1.081c.454.8,4.6,7.55,5.735,9.417h.72c-.714-1.157-5.446-8.885-5.921-9.719" fill="#0f5392"/><path d="M108.064,23.514a.57.57,0,0,1-.008-.5.377.377,0,0,1,.344-.117c.92.031,2.3-.028,2.355-.03h.023l.019-.01c3.18-.534,4.665-3.737,4.882-5.206a24.236,24.236,0,0,0,.025-3.815,7.089,7.089,0,0,0-6.575-5.654H94.1a2.008,2.008,0,0,0-1.979,2.077V34.771h.607V10.259a1.52,1.52,0,0,1,.427-1.073A1.32,1.32,0,0,1,94.1,8.8h15.034A6.441,6.441,0,0,1,115.1,13.9a24.851,24.851,0,0,1-.025,3.655c-.128.859-1.246,4.165-4.373,4.7l.027,0-.036,0h.009c-.187.008-1.456.055-2.282.029a.931.931,0,0,0-.872.395,1.15,1.15,0,0,0-.044,1.09c.173.364,5.218,8.828,6.582,11.115h.71c-2.66-4.454-6.586-11.058-6.735-11.373" fill="#0f5392"/><path d="M110.732,22.256l-.027,0H110.7Z" fill="#0f5392"/><path d="M105.258,21.96a.544.544,0,0,1-.034-.477.487.487,0,0,1,.391-.134c.239,0,.441,0,.674-.009.538-.017,1.276-.035,3.218-.017a4.456,4.456,0,0,0,4.439-3.651l.04-.338a11.741,11.741,0,0,0,.05-3.077,5.086,5.086,0,0,0-4.757-4.306l-8.888-.034-4.558-.023a2.009,2.009,0,0,0-2.038,2.073v22.8H94.4v-22.8a1.454,1.454,0,0,1,.407-1.052,1.432,1.432,0,0,1,1.026-.406l4.554.015,8.892.036a4.49,4.49,0,0,1,4.149,3.745,11.447,11.447,0,0,1-.043,2.949l-.046.345a3.894,3.894,0,0,1-3.827,3.119c-1.949-.019-2.7,0-3.239.013-.24.006-.427.013-.658.013a.994.994,0,0,0-.906.415,1.1,1.1,0,0,0,0,1.057c.195.42,5.974,10.36,7.318,12.671h.706c-2.107-3.617-7.295-12.564-7.47-12.927" fill="#0f5392"/><path d="M102.391,20.252v.015l-.011-.044a.125.125,0,0,0,.011.029.536.536,0,0,1,.069-.351.416.416,0,0,1,.339-.115c.424,0,1.758-.038,3.173-.084,1.622-.049,3.294-.1,3.885-.1a2.347,2.347,0,0,0,1.638-.748,2.586,2.586,0,0,0,.8-1.706l.009-.8a20.084,20.084,0,0,0-.04-2.244,3.487,3.487,0,0,0-3.079-2.443H97.54a1.925,1.925,0,0,0-2.012,2.009v21.1h.613v-21.1a1.437,1.437,0,0,1,.389-1.021,1.4,1.4,0,0,1,1.01-.383h11.649a2.927,2.927,0,0,1,2.472,1.895,20.823,20.823,0,0,1,.038,2.175l-.01.814a2.081,2.081,0,0,1-1.832,1.843c-.6,0-2.278.052-3.9.1-1.41.04-2.742.084-3.155.084a.972.972,0,0,0-.847.386,1.135,1.135,0,0,0-.141.891c.063.176,5.065,8.913,8.233,14.433h.706c-2.843-4.945-8.057-14.061-8.359-14.635" fill="#0f5392"/><path d="M102.391,20.267v-.015a.125.125,0,0,1-.011-.029Z" fill="#0f5392"/><path d="M99.547,18.671h0c0-.007-.015-.019-.015-.025.015.018.015.025.015.025" fill="#0f5392"/><path d="M99.547,18.67v0s0-.008-.015-.025c0,.006.011.017.015.023a.559.559,0,0,1,.126-.369.316.316,0,0,1,.261-.147c.588.033,4.4-.011,6.921-.04l2.181-.019a1.526,1.526,0,0,0,1.134-.429,1.324,1.324,0,0,0,.39-.912c0-.206.015-.5.032-.815.015-.342.029-.7.029-.958a1.707,1.707,0,0,0-.516-1.126,1.6,1.6,0,0,0-1.16-.487l-4.428-.027-5.3-.032a2.022,2.022,0,0,0-1.983,2.131V34.771h.609V15.44a1.636,1.636,0,0,1,.454-1.154,1.254,1.254,0,0,1,.92-.369l5.292.031,4.434.031a1.013,1.013,0,0,1,.731.307,1.1,1.1,0,0,1,.337.695c0,.252-.015.591-.032.927s-.03.632-.03.846c0,.252-.193.727-.915.727l-2.187.025c-2.513.03-6.313.07-6.882.04a.972.972,0,0,0-.916.618.819.819,0,0,0,.038.9l-.023-.027c.252.376,6.165,11.16,8.736,15.851h.692c-3.95-7.216-8.623-15.736-8.947-16.217" fill="#0f5392"/><path d="M140.383,6.476h-3.844a8.038,8.038,0,0,0-6.432,3.638c-1.015,1.908-10.165,22.046-10.552,22.9A1.207,1.207,0,0,0,119.6,34.2a1.254,1.254,0,0,0,.994.569h18.229v-.607H120.593a.645.645,0,0,1-.481-.292.6.6,0,0,1,0-.6c.09-.212,9.53-20.974,10.539-22.871a7.35,7.35,0,0,1,5.89-3.313h3.844a7.493,7.493,0,0,1,7.01,7.533V34.771h.613V14.618a7.924,7.924,0,0,0-2.336-5.747,8.015,8.015,0,0,0-5.287-2.4" fill="#0f5392"/><path d="M140.02,8.182h-3.084a6.505,6.505,0,0,0-5.39,2.838c-.924,1.6-9.417,20.189-9.478,20.34a1.161,1.161,0,0,0,.094,1.109,1.187,1.187,0,0,0,.95.543c.636.008,15.7,0,15.7,0V32.4s-15.064.007-15.695,0a.579.579,0,0,1-.5-.806c.066-.147,8.529-18.681,9.451-20.273A5.938,5.938,0,0,1,136.936,8.8h3.084a5.95,5.95,0,0,1,4.031,1.751,5.534,5.534,0,0,1,1.638,3.983V34.77h.606V14.53a6.113,6.113,0,0,0-1.813-4.415,6.49,6.49,0,0,0-4.462-1.933" fill="#0f5392"/><path d="M140.048,9.951c-.012,0-1.633-.029-3.234-.029a4.6,4.6,0,0,0-4.169,2.688c-.725,1.359-4.972,10.495-7.019,14.892l-.934,2a1.224,1.224,0,0,0,.033,1.216,1.253,1.253,0,0,0,1.023.58h13.074v-.612H125.748a.629.629,0,0,1-.508-.294.618.618,0,0,1,0-.626l.931-2.006c1.886-4.046,6.285-13.523,7.007-14.86a4.027,4.027,0,0,1,3.632-2.371c1.6,0,3.21.031,3.225.031a3.88,3.88,0,0,1,2.711,1.151,4.075,4.075,0,0,1,1.168,2.906V34.77h.61V14.617a4.669,4.669,0,0,0-1.347-3.336,4.474,4.474,0,0,0-3.133-1.33" fill="#0f5392"/><path d="M139.984,11.659h-2.991a2.718,2.718,0,0,0-2.613,1.384c-.465.895-7.056,14.585-7.124,14.72a1.205,1.205,0,0,0,.036,1.207,1.323,1.323,0,0,0,1.078.618h10.452v-.611H128.37a.732.732,0,0,1-.565-.33.6.6,0,0,1,0-.616c.067-.136,6.658-13.819,7.112-14.708a2.139,2.139,0,0,1,2.076-1.059h2.991a2.269,2.269,0,0,1,1.569.687,2.151,2.151,0,0,1,.662,1.512V34.77h.605V14.463a2.761,2.761,0,0,0-.836-1.945,2.89,2.89,0,0,0-2-.859" fill="#0f5392"/><path d="M141.112,14.65a1.286,1.286,0,0,0-.34-.955,1.206,1.206,0,0,0-.878-.328h-3.109a1.218,1.218,0,0,0-1.105.838c-.137.328-5.493,11.129-5.844,11.8a1.2,1.2,0,0,0,0,1.208,1.309,1.309,0,0,0,1.061.628h7.925v-.614H130.9a.7.7,0,0,1-.538-.329.6.6,0,0,1,.015-.607c.044-.082,5.638-11.308,5.867-11.837.168-.393.34-.471.544-.471h3.109a.594.594,0,0,1,.45.151.7.7,0,0,1,.157.521V34.77h.611Z" fill="#0f5392"/><path d="M178.024,24.006v3.355a7.823,7.823,0,0,1-7.821,6.8H159.687a7.274,7.274,0,0,1-5.266-2.144,8.236,8.236,0,0,1-2.376-5.788V13.669a5.706,5.706,0,0,1,1.805-3.992,9,9,0,0,1,5.9-2.592H170.6a7.277,7.277,0,0,1,5.088,2.3,7,7,0,0,1,2.17,3.74V15.9h.609V13.125a7.383,7.383,0,0,0-2.352-4.17A7.862,7.862,0,0,0,170.6,6.476H159.748c-3.31,0-8.314,2.87-8.314,7.193V26.232a8.854,8.854,0,0,0,2.552,6.216,7.9,7.9,0,0,0,5.7,2.322H170.2a8.442,8.442,0,0,0,8.432-7.378V24.006Z" fill="#0f5392"/><path d="M153.949,13.287c0-.006,0-.008,0-.011v-.025Z" fill="#0f5392"/><path d="M176.906,15.9c0-.009,0-1.4,0-2.071a7.062,7.062,0,0,0-6.6-5.643H159.9c-2.72,0-6.173,2.2-6.556,5.021v.036c0,.128-.153,12.614-.153,14.122,0,1.865,2.43,5.443,5.9,5.64h11.239a7,7,0,0,0,6.552-5.81V24h-.606v3.117a6.36,6.36,0,0,1-5.946,5.272H159.1c-3.056-.18-5.3-3.411-5.3-5.033,0-1.474.147-13.473.155-14.085,0,0,0,.005,0,.011l0-.036v.025c.339-2.485,3.527-4.48,5.945-4.48h10.4a6.422,6.422,0,0,1,6,5.029c0,.659-.011,2.062-.011,2.071Z" fill="#0f5392"/><path d="M176.272,27.105v0Z" fill="#0f5392"/><path d="M174.5,15.9h.6c0-.009.015-1.2.015-2.008a4.256,4.256,0,0,0-1.349-2.431,4.908,4.908,0,0,0-3.5-1.506H159.833c-2.177,0-4.594,1.864-4.874,3.769l0,.017v.027l-.076,13.387a4.814,4.814,0,0,0,1.469,2.716,4.7,4.7,0,0,0,3.337,1.431h10.487a5.166,5.166,0,0,0,5-4.225l0-.023V24h-.609V27l0-.013,0,.042V27a4.534,4.534,0,0,1-4.39,3.688H159.687a4.072,4.072,0,0,1-2.9-1.252,4.39,4.39,0,0,1-1.294-2.283l.074-13.36v0c.223-1.456,2.231-3.231,4.267-3.231h10.433a4.308,4.308,0,0,1,3.069,1.334,3.806,3.806,0,0,1,1.17,1.994c0,.817-.01,2-.008,2.008" fill="#0f5392"/><path d="M174.568,26.985l0,.013v.029Z" fill="#0f5392"/><path d="M155.566,13.81v0Z" fill="#0f5392"/><path d="M172.825,14.253c0,.582,0,1.643,0,1.643h.611s0-1.03,0-1.643a2.265,2.265,0,0,0-.748-1.529,3.569,3.569,0,0,0-2.394-1.065H159.778a3.294,3.294,0,0,0-3.264,3.321V26.724a2.617,2.617,0,0,0,.837,1.8,3.588,3.588,0,0,0,2.427,1.066h10.549a3.29,3.29,0,0,0,3.189-3.176c0-1.5,0-2.356,0-2.407h-.607v2.372a2.711,2.711,0,0,1-2.582,2.6H159.778a2.942,2.942,0,0,1-2-.89,1.975,1.975,0,0,1-.661-1.364V14.98a2.714,2.714,0,0,1,.789-1.925,2.669,2.669,0,0,1,1.868-.791h10.516a2.927,2.927,0,0,1,1.959.89,1.688,1.688,0,0,1,.572,1.1" fill="#0f5392"/><path d="M171.791,15.9V14.98a1.627,1.627,0,0,0-1.645-1.613H159.834a1.56,1.56,0,0,0-1.552,1.613V26.231a1.561,1.561,0,0,0,.443,1.139,1.639,1.639,0,0,0,1.157.466l4.441,0,5.823-.015a1.576,1.576,0,0,0,1.139-.458,1.623,1.623,0,0,0,.475-1.128V24h-.611v2.226a.985.985,0,0,1-1,.981l-5.823.006-4.441,0a1.041,1.041,0,0,1-.726-.283.962.962,0,0,1-.263-.708V14.98a1.172,1.172,0,0,1,.3-.763.847.847,0,0,1,.636-.239h10.312a1,1,0,0,1,.731.292,1.044,1.044,0,0,1,.3.71V15.9Z" fill="#0f5392"/><path d="M185,3.8a4.031,4.031,0,0,1-8.048,0A4.031,4.031,0,0,1,185,3.8m-7.572,0a3.564,3.564,0,0,0,7.121,0,3.564,3.564,0,0,0-7.121,0m3.247-2.368a2.708,2.708,0,0,1,1.479.3,1.091,1.091,0,0,1,.552.952c0,.523-.288,1-1.166,1.249l.927,1.427c.3.464.515.488.766.488v.238H182.3l-1.329-2.07h-.7V5.246c0,.559,0,.6.627.6v.238h-1.73V5.841c.489,0,.526-.06.526-.547V2.236c0-.511-.037-.571-.526-.571V1.427Zm-.213.274c-.188,0-.188.036-.188.309V3.723h.388c.991,0,1.455-.38,1.455-1.023,0-.369-.188-1-1.417-1Z" fill="#0f5392"/></g></svg>